<svg xmlns="http://www.w3.org/2000/svg" viewBox="0 0 512 512">
  <defs>
    <linearGradient id="bg" x1="0%" y1="0%" x2="100%" y2="100%">
      <stop offset="0%" stop-color="#0f0f23"/>
      <stop offset="100%" stop-color="#1a1a3e"/>
    </linearGradient>
    <linearGradient id="accent" x1="0%" y1="0%" x2="100%" y2="100%">
      <stop offset="0%" stop-color="#00d4ff"/>
      <stop offset="100%" stop-color="#7b2ff7"/>
    </linearGradient>
  </defs>
  <rect width="512" height="512" rx="80" fill="url(#bg)"/>
  <!-- T piece -->
  <rect x="136" y="96" width="80" height="80" rx="8" fill="#b44dff" opacity="0.9"/>
  <rect x="216" y="96" width="80" height="80" rx="8" fill="#b44dff" opacity="0.9"/>
  <rect x="296" y="96" width="80" height="80" rx="8" fill="#b44dff" opacity="0.9"/>
  <rect x="216" y="176" width="80" height="80" rx="8" fill="#b44dff" opacity="0.9"/>
  <!-- I piece -->
  <rect x="56" y="256" width="80" height="80" rx="8" fill="#00d4ff" opacity="0.9"/>
  <rect x="136" y="256" width="80" height="80" rx="8" fill="#00d4ff" opacity="0.9"/>
  <rect x="216" y="256" width="80" height="80" rx="8" fill="#00d4ff" opacity="0.9"/>
  <rect x="296" y="256" width="80" height="80" rx="8" fill="#00d4ff" opacity="0.9"/>
  <!-- L piece -->
  <rect x="136" y="336" width="80" height="80" rx="8" fill="#ff8c00" opacity="0.9"/>
  <rect x="136" y="416" width="80" height="80" rx="8" fill="#ff8c00" opacity="0.7"/>
  <rect x="216" y="416" width="80" height="80" rx="8" fill="#ff8c00" opacity="0.7"/>
  <!-- S piece -->
  <rect x="296" y="336" width="80" height="80" rx="8" fill="#00ff88" opacity="0.9"/>
  <rect x="376" y="336" width="80" height="80" rx="8" fill="#00ff88" opacity="0.9"/>
  <rect x="376" y="416" width="80" height="80" rx="8" fill="#00ff88" opacity="0.7"/>
</svg>
